<?xml version="1.0" encoding="iso-8859-1"?>
<!-- Generator: Adobe Illustrator 19.0.0, SVG Export Plug-In . SVG Version: 6.00 Build 0)  -->
<svg version="1.1" id="Layer_1" xmlns="http://www.w3.org/2000/svg" xmlns:xlink="http://www.w3.org/1999/xlink" x="0px" y="0px"
	 viewBox="0 0 512 512" style="enable-background:new 0 0 512 512;" xml:space="preserve">
<g>
	<g>
		<path d="M507.281,297.771c2.893-1.451,4.719-4.403,4.719-7.637V256c0-4.719-3.823-8.533-8.533-8.533H460.8v-153.6
			c0-4.719-3.823-8.533-8.533-8.533H307.2c-3.507,0-6.656,2.15-7.945,5.419l-71.142,181.094l-40.38-13.457V102.4
			c0-4.719-3.823-8.533-8.533-8.533h-34.133c-4.71,0-8.533,3.814-8.533,8.533V256h-25.6c-4.71,0-8.533,3.814-8.533,8.533v110.933
			H8.533C3.823,375.467,0,379.281,0,384s3.823,8.533,8.533,8.533h165.12c7.049,19.857,25.967,34.133,48.213,34.133
			c18.901,0,35.405-10.325,44.271-25.6h144.674c3.814,14.686,17.067,25.6,32.922,25.6c15.855,0,29.107-10.914,32.922-25.6h26.812
			c4.71,0,8.533-3.814,8.533-8.533V332.8c0-4.719-3.823-8.533-8.533-8.533h-8.533V303.94L507.281,297.771z M136.533,375.467h-17.067
			v-102.4h17.067V375.467z M170.667,375.467H153.6V110.933h17.067V375.467z M313.02,102.4h130.714v170.667h-17.067v-76.8
			c0-4.719-3.823-8.533-8.533-8.533H384c-4.71,0-8.533,3.814-8.533,8.533v42.667h-34.133c-4.71,0-8.533,3.814-8.533,8.533v32.119
			L318.993,307.2h-33.604l21.274-56.73c1.63-4.352-0.512-9.199-4.821-10.923l-2.057-0.819l11.238-22.468l9.429,4.719
			c4.224,2.091,9.344,0.393,11.452-3.814c2.108-4.215,0.401-9.344-3.814-11.452l-17.067-8.533
			c-4.224-2.099-9.344-0.401-11.452,3.814l-15.684,31.377l-18.944-7.578L313.02,102.4z M443.733,290.133V307.2h-105.66l8.533-17.067
			H443.733z M349.867,273.067V256H384c4.71,0,8.533-3.814,8.533-8.533V204.8H409.6v68.267H349.867z M258.697,240.674l29.047,11.622
			l-19.61,52.275l-29.85-11.947L258.697,240.674z M187.733,276.369l34.133,11.375l-15.258,38.844
			c-7.083,2.219-13.474,5.973-18.876,10.82V276.369z M221.867,409.6c-18.825,0-34.133-15.309-34.133-34.133
			s15.309-34.133,34.133-34.133S256,356.642,256,375.467S240.691,409.6,221.867,409.6z M443.733,409.6
			c-9.412,0-17.067-7.654-17.067-17.067c0-9.412,7.654-17.067,17.067-17.067c9.412,0,17.067,7.654,17.067,17.067
			C460.8,401.946,453.146,409.6,443.733,409.6z M486.4,341.333h8.533V384h-18.278c-3.814-14.686-17.067-25.6-32.922-25.6
			c-15.855,0-29.107,10.914-32.922,25.6H272.299c0.469-2.782,0.768-5.623,0.768-8.533c0-26.914-20.881-48.99-47.292-51.004
			l6.263-15.949l37.854,15.138c0.034,0.009,0.068,0.009,0.102,0.017c0.026,0.008,0.051,0.034,0.077,0.051
			c0.99,0.367,1.997,0.546,2.995,0.546h179.2c4.71,0,8.533-3.814,8.533-8.533v-51.2h34.133v20.326l-12.348,6.178
			c-2.893,1.442-4.719,4.395-4.719,7.629V332.8C477.867,337.519,481.69,341.333,486.4,341.333z"/>
	</g>
</g>
<g>
</g>
<g>
</g>
<g>
</g>
<g>
</g>
<g>
</g>
<g>
</g>
<g>
</g>
<g>
</g>
<g>
</g>
<g>
</g>
<g>
</g>
<g>
</g>
<g>
</g>
<g>
</g>
<g>
</g>
</svg>
